<?xml version="1.0" encoding="UTF-8" standalone="no"?>
<svg
   width="100"
   height="65"
   viewBox="0 0 100 65"
   fill="none"
   version="1.1"
   id="svg9"
   xmlns="http://www.w3.org/2000/svg">
  <g id="g7">
    <path
       d="M41.289 18.594H29.6C28.861 18.594 28.174 19.073 27.918 19.782L19.3 47.876C19.143 48.328 19.462 48.794 19.938 48.794H25.706C26.445 48.794 27.136 48.316 27.389 47.607L29.066 42.323C29.318 41.612 30.006 41.136 30.748 41.136H35.295C36.034 41.136 36.722 41.612 36.976 42.323L38.653 47.607C38.904 48.316 39.594 48.794 40.332 48.794H46.102C46.577 48.794 46.895 48.328 46.741 47.876L38.123 19.782C37.866 19.073 37.18 18.594 36.44 18.594H41.289Z"
       fill="white"
       id="path1" />
    <path
       d="M54.098 18.594H48.672C48.196 18.594 47.878 19.06 48.034 19.512L56.655 47.605C56.909 48.314 57.596 48.794 58.337 48.794H63.763C64.239 48.794 64.557 48.328 64.4 47.876L55.779 19.782C55.526 19.073 54.838 18.594 54.098 18.594Z"
       fill="white"
       id="path2" />
    <path
       d="M73.598 28.217H81.324C81.8 28.217 82.119 28.683 81.962 29.135L79.59 36.536C79.435 36.989 78.945 37.273 78.469 37.273H70.743C70.267 37.273 69.948 36.807 70.105 36.355L72.477 28.954C72.632 28.501 73.122 28.217 73.598 28.217Z"
       fill="white"
       id="path3" />
    <path
       d="M72.215 38.856H64.489C64.012 38.856 63.694 39.322 63.85 39.775L66.222 47.175C66.377 47.628 66.867 47.912 67.343 47.912H75.069C75.545 47.912 75.864 47.447 75.707 46.994L73.335 39.593C73.18 39.14 72.691 38.856 72.215 38.856Z"
       fill="white"
       id="path4" />
    <path
       d="M80.006 18.594H72.28C71.804 18.594 71.485 19.06 71.642 19.512L74.013 26.913C74.168 27.366 74.658 27.65 75.134 27.65H82.861C83.337 27.65 83.655 27.184 83.498 26.731L81.127 19.331C80.971 18.878 80.482 18.594 80.006 18.594Z"
       fill="white"
       id="path5" />
    <path
       d="M36.44 18.594L29.6 18.594C28.861 18.594 28.174 19.073 27.918 19.782L19.3 47.876C19.143 48.328 19.462 48.794 19.938 48.794H25.706C26.445 48.794 27.136 48.316 27.389 47.607L29.066 42.323C29.318 41.612 30.006 41.136 30.748 41.136H35.295C36.034 41.136 36.722 41.612 36.976 42.323L38.653 47.607C38.904 48.316 39.594 48.794 40.332 48.794H46.102C46.577 48.794 46.895 48.328 46.741 47.876L38.123 19.782C37.866 19.073 37.18 18.594 36.44 18.594Z"
       fill="#2A2A6C"
       id="path6" />
    <path
       d="M35.417 33.352H30.87C30.13 33.352 29.442 32.876 29.191 32.167L27.514 26.883C27.357 26.43 27.676 25.965 28.151 25.965H32.698C33.438 25.965 34.125 26.443 34.381 27.152L36.058 32.436C36.213 32.889 35.894 33.354 35.419 33.354L35.417 33.352Z"
       fill="#E9CB0D"
       id="path7" />
    <path
       d="M54.098 18.594H48.672C48.196 18.594 47.878 19.06 48.034 19.512L56.655 47.605C56.909 48.314 57.596 48.794 58.337 48.794H63.763C64.239 48.794 64.557 48.328 64.4 47.876L55.779 19.782C55.526 19.073 54.838 18.594 54.098 18.594Z"
       fill="#2A2A6C"
       id="path8" />
    <path
       d="M73.598 28.217H81.324C81.8 28.217 82.119 28.683 81.962 29.135L79.59 36.536C79.435 36.989 78.945 37.273 78.469 37.273H70.743C70.267 37.273 69.948 36.807 70.105 36.355L72.477 28.954C72.632 28.501 73.122 28.217 73.598 28.217Z"
       fill="#2A2A6C"
       id="path9" />
    <path
       d="M72.215 38.856H64.489C64.012 38.856 63.694 39.322 63.85 39.775L66.222 47.175C66.377 47.628 66.867 47.912 67.343 47.912H75.069C75.545 47.912 75.864 47.447 75.707 46.994L73.335 39.593C73.18 39.14 72.691 38.856 72.215 38.856Z"
       fill="#2A2A6C"
       id="path10" />
    <path
       d="M80.006 18.594H72.28C71.804 18.594 71.485 19.06 71.642 19.512L74.013 26.913C74.168 27.366 74.658 27.65 75.134 27.65H82.861C83.337 27.65 83.655 27.184 83.498 26.731L81.127 19.331C80.971 18.878 80.482 18.594 80.006 18.594Z"
       fill="#2A2A6C"
       id="path11" />
  </g>
</svg>
